<?xml version="1.0" encoding="UTF-8" standalone="no"?>
<svg
   xmlns:dc="http://purl.org/dc/elements/1.1/"
   xmlns:cc="http://creativecommons.org/ns#"
   xmlns:rdf="http://www.w3.org/1999/02/22-rdf-syntax-ns#"
   xmlns:svg="http://www.w3.org/2000/svg"
   xmlns="http://www.w3.org/2000/svg"
   version="1.1"
   id="svg3753"
   viewBox="0 0 744.09449 744.09448"
   height="210mm"
   width="210mm">
  <defs
     id="defs3755" />
  <metadata
     id="metadata3758">
    <rdf:RDF>
      <cc:Work
         rdf:about="">
        <dc:format>image/svg+xml</dc:format>
        <dc:type
           rdf:resource="http://purl.org/dc/dcmitype/StillImage" />
        <dc:title></dc:title>
      </cc:Work>
    </rdf:RDF>
  </metadata>
  <g
     transform="translate(0,-308.26772)"
     style="display:inline"
     id="layer3">
    <path
       style="display:inline;fill:none;fill-rule:evenodd;stroke:#FFFFFF;stroke-width:29.71385574;stroke-linecap:round;stroke-linejoin:miter;stroke-miterlimit:4;stroke-dasharray:none;stroke-opacity:1"
       id="path4313"
       d="m 561.20189,551.02357 a 287.59036,287.58499 0 0 1 -31.90966,388.62556 287.59036,287.58499 0 0 1 -389.94041,-0.41066 287.59036,287.58499 0 0 1 -31.091,-388.69191 287.59036,287.58499 0 0 1 384.91721,-62.38827" />
  </g>
  <g
     transform="translate(0,-308.26772)"
     style="display:inline"
     id="layer4">
    <path
       id="path5199"
       d="m 99.16881,895.24549 c 0,0 103.57138,-283.91425 224.97433,-286.52387 123.89924,-2.66327 245.99414,286.31967 245.99414,286.31967"
       style="display:inline;fill:none;fill-rule:evenodd;stroke:#FFFFFF;stroke-width:14.85679626;stroke-linecap:butt;stroke-linejoin:miter;stroke-miterlimit:4;stroke-dasharray:none;stroke-opacity:1" />
  </g>
  <g
     transform="translate(0,-308.26772)"
     style="display:inline"
     id="layer5">
    <path
       id="path5201"
       d="m 463.76761,706.33153 c 0,0 37.91009,-60.44748 75.5898,-60.01872 35.60371,0.40514 77.4369,67.53918 77.4369,67.53918"
       style="display:inline;fill:none;fill-rule:evenodd;stroke:#FFFFFF;stroke-width:14.85679626;stroke-linecap:butt;stroke-linejoin:miter;stroke-miterlimit:4;stroke-dasharray:none;stroke-opacity:1" />
  </g>
  <g
     transform="translate(0,-308.26772)"
     style="display:inline"
     id="layer6">
    <path
       d="M 498.5411,416.20319 A 352.31775,352.31696 0 0 1 629.70584,535.65001"
       id="path5162"
       style="display:inline;fill:none;stroke:#FFFFFF;stroke-width:30.72236824;stroke-linecap:round;stroke-miterlimit:4;stroke-dasharray:none;stroke-opacity:1" />
  </g>
  <g
     transform="translate(0,-308.26772)"
     style="display:inline"
     id="layer7">
    <path
       d="M 536.54861,346.26662 A 431.90829,431.90829 0 0 1 695.95236,491.52976"
       id="path5164"
       style="display:inline;fill:none;stroke:#FFFFFF;stroke-width:30.72236824;stroke-linecap:round;stroke-miterlimit:4;stroke-dasharray:none;stroke-opacity:1" />
  </g>
</svg>
